<?xml version="1.0" encoding="iso-8859-1"?>
<!-- Generator: Adobe Illustrator 19.0.0, SVG Export Plug-In . SVG Version: 6.00 Build 0)  -->
<svg version="1.1" id="Capa_1" xmlns="http://www.w3.org/2000/svg" xmlns:xlink="http://www.w3.org/1999/xlink" x="0px" y="0px"
	 viewBox="0 0 512 512" style="enable-background:new 0 0 512 512;" xml:space="preserve">
<g>
	<g>
		<path d="M362.658,66.016h-85.312c-5.888,0-10.656,4.928-10.656,11.008S271.426,88,277.346,88h85.344
			c5.888,0,10.656-4.928,10.656-11.008S368.578,66.016,362.658,66.016z"/>
	</g>
</g>
<g>
	<g>
		<path d="M393.378,5.792C391.554,2.24,387.938,0,384.002,0h-128c-3.936,0-7.552,2.24-9.408,5.824
			c-1.856,3.552-1.632,7.904,0.544,11.264l22.304,34.528c2.528-0.8,5.088-1.632,7.872-1.632h85.344c2.816,0,5.376,0.8,7.904,1.632
			l22.304-34.528C395.042,13.728,395.266,9.376,393.378,5.792z"/>
	</g>
</g>
<g>
	<g>
		<path d="M48.002,256h-32c-8.832,0-16,7.168-16,16v224c0,8.832,7.168,16,16,16h32c8.832,0,16-7.168,16-16V272
			C64.002,263.168,56.834,256,48.002,256z"/>
	</g>
</g>
<g>
	<g>
		<path d="M501.89,290.528c-16.256-20.96-46.464-24.704-67.328-8.416l-118.016,91.776C308.098,380.448,297.73,384,287.074,384
			H176.002c44.192,0,80-35.808,80-80c0-8.832-7.168-16-16-16h-144v96v96h212.992c17.792,0,35.072-5.92,49.12-16.864l135.36-105.28
			C514.402,341.6,518.146,311.456,501.89,290.528z"/>
	</g>
</g>
<g>
	<g>
		<path d="M436.226,228.448l-68.448-125.472c-1.696,0.352-3.264,1.024-5.088,1.024h-85.344c-1.792,0-3.36-0.704-5.056-1.024
			l-68.48,125.472c-4.672,8.576-7.52,17.952-9.44,27.552h45.632c26.464,0,48,21.536,48,48c0,17.152-3.904,33.44-10.816,48h9.888
			c3.584,0,6.976-1.152,9.824-3.36l118.016-91.776c8.16-6.368,17.376-10.912,27.072-13.696
			C440.258,238.176,438.754,233.088,436.226,228.448z"/>
	</g>
</g>
<g>
</g>
<g>
</g>
<g>
</g>
<g>
</g>
<g>
</g>
<g>
</g>
<g>
</g>
<g>
</g>
<g>
</g>
<g>
</g>
<g>
</g>
<g>
</g>
<g>
</g>
<g>
</g>
<g>
</g>
</svg>
