<?xml version="1.0" encoding="iso-8859-1"?>
<!-- Generator: Adobe Illustrator 19.0.0, SVG Export Plug-In . SVG Version: 6.00 Build 0)  -->
<svg version="1.1" id="Capa_1" xmlns="http://www.w3.org/2000/svg" xmlns:xlink="http://www.w3.org/1999/xlink" x="0px" y="0px"
	 viewBox="0 0 512 512" style="enable-background:new 0 0 512 512;" xml:space="preserve">
<g>
	<g>
		<g>
			<path d="M439.917,166.719l-10.104-2.531l5.354-8.948c2.521-4.188,1.854-9.563-1.604-13.021l-21.115-21.115
				c-3.458-3.469-8.833-4.115-13.021-1.604l-8.948,5.354l-2.531-10.104c-1.177-4.75-5.448-8.083-10.344-8.083h-29.875
				c-4.896,0-9.167,3.333-10.344,8.083l-2.531,10.104l-8.948-5.354c-4.177-2.5-9.552-1.854-13.021,1.604l-21.115,21.115
				c-3.458,3.458-4.125,8.833-1.604,13.021l5.354,8.948l-10.104,2.531c-4.75,1.177-8.083,5.448-8.083,10.344v29.875
				c0,4.896,3.333,9.167,8.083,10.344l10.104,2.531l-5.354,8.948c-2.521,4.188-1.854,9.563,1.604,13.021l21.115,21.115
				c3.458,3.448,8.823,4.115,13.021,1.604l8.948-5.354l2.531,10.104c1.177,4.75,5.448,8.083,10.344,8.083h29.875
				c4.896,0,9.167-3.333,10.344-8.083l2.531-10.104l8.948,5.354c4.177,2.5,9.573,1.854,13.021-1.604l21.115-21.115
				c3.458-3.458,4.125-8.833,1.604-13.021l-5.354-8.948l10.104-2.531c4.75-1.177,8.083-5.448,8.083-10.344v-29.875
				C448,172.167,444.667,167.896,439.917,166.719z M362.667,224c-17.646,0-32-14.354-32-32s14.354-32,32-32s32,14.354,32,32
				S380.313,224,362.667,224z"/>
			<path d="M224,234.667H74.667c-5.896,0-10.667,4.771-10.667,10.667C64,251.229,68.771,256,74.667,256H224
				c5.896,0,10.667-4.771,10.667-10.667C234.667,239.438,229.896,234.667,224,234.667z"/>
			<path d="M160,277.333H74.667C68.771,277.333,64,282.104,64,288s4.771,10.667,10.667,10.667H160
				c5.896,0,10.667-4.771,10.667-10.667S165.896,277.333,160,277.333z"/>
			<path d="M469.333,42.667H192v-32C192,4.771,187.229,0,181.333,0h-64c-5.896,0-10.667,4.771-10.667,10.667v32h-64
				C19.146,42.667,0,61.802,0,85.333V384c0,23.531,19.146,42.667,42.667,42.667h149.381c-0.448,17.018-3.698,44.24-15.902,57.094
				c-4.479,4.708-9.604,6.906-16.146,6.906c-5.896,0-10.667,4.771-10.667,10.667c0,5.896,4.771,10.667,10.667,10.667h192
				c5.896,0,10.667-4.771,10.667-10.667c0-5.896-4.771-10.667-10.667-10.667c-6.542,0-11.667-2.188-16.125-6.896
				c-12.174-12.79-15.445-40.051-15.91-57.104h149.369C492.854,426.667,512,407.531,512,384V85.333
				C512,61.802,492.854,42.667,469.333,42.667z M256,405.396c-11.792,0-21.396-9.604-21.396-21.396
				c0-11.792,9.604-21.396,21.396-21.396s21.396,9.604,21.396,21.396C277.396,395.792,267.792,405.396,256,405.396z M42.667,341.333
				v-256h64v21.333H85.333c-4.042,0-7.729,2.281-9.542,5.896c-1.802,3.615-1.417,7.938,1.01,11.167l64,85.333
				c2.01,2.688,5.177,4.271,8.531,4.271c3.354,0,6.521-1.583,8.531-4.271l64-85.333c2.427-3.229,2.813-7.552,1.01-11.167
				c-1.813-3.615-5.5-5.896-9.542-5.896H192V85.333h277.333l0.018,256H42.667z"/>
		</g>
	</g>
</g>
<g>
</g>
<g>
</g>
<g>
</g>
<g>
</g>
<g>
</g>
<g>
</g>
<g>
</g>
<g>
</g>
<g>
</g>
<g>
</g>
<g>
</g>
<g>
</g>
<g>
</g>
<g>
</g>
<g>
</g>
</svg>
